<?xml version="1.0" encoding="UTF-8" standalone="no"?><!DOCTYPE svg PUBLIC "-//W3C//DTD SVG 1.1//EN" "http://www.w3.org/Graphics/SVG/1.1/DTD/svg11.dtd"><svg width="100%" height="100%" viewBox="0 0 64 64" version="1.1" xmlns="http://www.w3.org/2000/svg" xmlns:xlink="http://www.w3.org/1999/xlink" xml:space="preserve" style="fill-rule:evenodd;clip-rule:evenodd;stroke-linejoin:round;stroke-miterlimit:1.41421;"><path id="path3801" d="M5.744,7.16c3.986,0.108 6.597,0.423 10.259,1.24c12.639,2.817 23.081,9.884 30.432,20.593c1.69,2.461 3.261,5.408 4.551,8.537c0.311,0.754 0.606,1.47 0.656,1.591l0.091,0.22l0.565,-0.246c0.761,-0.332 9.294,-3.766 9.356,-3.765c0.026,0 -0.04,0.318 -0.149,0.706c-0.108,0.388 -0.262,0.947 -0.341,1.241c-0.08,0.295 -0.254,0.886 -0.386,1.314c-0.132,0.428 -0.34,1.151 -0.462,1.606c-0.122,0.455 -0.256,0.937 -0.298,1.071c-0.279,0.89 -0.43,1.408 -0.908,3.114c-0.053,0.187 -0.208,0.713 -0.345,1.168c-0.296,0.98 -0.51,1.74 -0.761,2.694c-0.101,0.385 -0.207,0.737 -0.236,0.783c-0.056,0.088 -0.519,1.712 -0.965,3.385c-0.043,0.16 -0.13,0.445 -0.193,0.632c-0.064,0.187 -0.207,0.669 -0.32,1.071c-0.112,0.401 -0.247,0.883 -0.3,1.07c-0.146,0.517 -0.794,2.735 -0.896,3.066c-0.049,0.161 -0.168,0.588 -0.266,0.949c-0.097,0.362 -0.218,0.657 -0.268,0.656c-0.051,0 -2.306,-1.285 -5.01,-2.856c-2.705,-1.57 -4.984,-2.887 -5.064,-2.927c-0.08,-0.039 -0.32,-0.181 -0.534,-0.314c-0.213,-0.133 -0.519,-0.312 -0.68,-0.398c-0.16,-0.086 -0.466,-0.264 -0.679,-0.396c-0.214,-0.131 -0.563,-0.329 -0.777,-0.44c-0.213,-0.111 -0.563,-0.309 -0.777,-0.441c-0.213,-0.131 -0.519,-0.309 -0.679,-0.395c-0.16,-0.086 -0.466,-0.264 -0.68,-0.396c-0.213,-0.132 -0.519,-0.309 -0.679,-0.394c-0.16,-0.084 -0.357,-0.198 -0.437,-0.252c-0.08,-0.055 -1.493,-0.875 -3.139,-1.824c-1.646,-0.949 -2.956,-1.747 -2.912,-1.774c0.045,-0.027 1.36,-0.565 2.922,-1.194c1.561,-0.63 3.655,-1.499 4.651,-1.933c0.997,-0.433 1.999,-0.866 2.228,-0.963l0.416,-0.176l-0.316,-0.909c-0.88,-2.529 -2.309,-5.65 -3.681,-8.038c-0.998,-1.736 -1.401,-2.305 -2.695,-3.803c-5.99,-6.935 -14.265,-11.583 -23.718,-13.32c-2.475,-0.455 -3.923,-0.598 -6.848,-0.678l-2.805,-0.076l0.039,-4.44l0.038,-4.44l3,0.081l0,0Z" style="fill:#ff2a2a;fill-rule:nonzero;"/></svg>