<?xml version="1.0" encoding="UTF-8" standalone="no"?><!DOCTYPE svg PUBLIC "-//W3C//DTD SVG 1.1//EN" "http://www.w3.org/Graphics/SVG/1.1/DTD/svg11.dtd"><svg width="100%" height="100%" viewBox="0 0 800 400" version="1.1" xmlns="http://www.w3.org/2000/svg" xmlns:xlink="http://www.w3.org/1999/xlink" xml:space="preserve" style="fill-rule:evenodd;clip-rule:evenodd;stroke-linejoin:round;stroke-miterlimit:1.41421;"><g><g><path d="M777.934,213.781l-25.145,0l-4.11,25.145l25.144,0l4.111,-25.145Z" style="fill:#ff2a2a;"/></g><g><path d="M46.189,150.036l6.386,57.587l0.236,0l27.789,-57.587l18.447,0l8.396,57.587l0.236,0l25.897,-57.587l24.123,0l-42.57,89.16l-23.65,0l-7.45,-51.675l-0.236,0l-25.661,51.675l-23.531,0l-12.535,-89.16l24.123,0Z" style="fill-rule:nonzero;"/><path d="M186.67,150.036l-14.072,89.16l-23.177,0l14.072,-89.16l23.177,0Z" style="fill-rule:nonzero;"/><path d="M219.425,186.811l33.819,-36.775l28.735,0l-42.097,42.215l31.218,46.945l-30.035,0l-23.769,-38.668l-0.236,0l-6.149,38.668l-23.177,0l14.072,-89.16l23.177,0l-5.795,36.775l0.237,0Z" style="fill-rule:nonzero;"/><path d="M314.616,150.036l-14.072,89.16l-23.177,0l14.072,-89.16l23.177,0Z" style="fill-rule:nonzero;"/><path d="M387.221,155.002l-12.061,17.974c-4.1,-3.942 -8.908,-5.912 -14.427,-5.912c-2.444,0 -4.828,0.67 -7.154,2.01c-2.325,1.34 -3.646,3.153 -3.961,5.439c-0.237,1.262 -0.118,2.365 0.355,3.311c0.473,0.946 1.281,1.774 2.424,2.484c1.143,0.709 2.108,1.221 2.897,1.537c0.788,0.315 1.852,0.709 3.193,1.182l5.676,1.774c6.621,2.05 11.568,4.947 14.84,8.691c3.271,3.745 4.355,8.968 3.252,15.668c-1.656,10.801 -5.992,18.802 -13.008,24.005c-7.489,5.597 -16.358,8.396 -26.606,8.396c-11.273,0 -21.206,-3.39 -29.799,-10.17l12.889,-18.683c6.071,6.149 12.456,9.223 19.157,9.223c3.074,0 5.833,-0.768 8.277,-2.305c2.444,-1.538 3.903,-3.765 4.376,-6.682c0.236,-1.182 0.098,-2.286 -0.414,-3.311c-0.513,-1.024 -1.124,-1.852 -1.833,-2.483c-0.71,-0.63 -1.735,-1.241 -3.075,-1.833c-1.34,-0.591 -2.404,-1.024 -3.192,-1.3c-0.789,-0.276 -1.853,-0.611 -3.193,-1.005c-0.316,-0.079 -0.552,-0.158 -0.71,-0.237c-1.734,-0.552 -3.212,-1.025 -4.434,-1.419c-1.222,-0.394 -2.562,-0.867 -4.021,-1.419c-1.458,-0.552 -2.66,-1.104 -3.606,-1.655c-0.946,-0.552 -1.932,-1.222 -2.956,-2.011c-1.025,-0.788 -1.853,-1.596 -2.484,-2.424c-0.63,-0.828 -1.202,-1.813 -1.714,-2.956c-0.513,-1.143 -0.887,-2.365 -1.124,-3.666c-0.236,-1.301 -0.335,-2.759 -0.295,-4.375c0.039,-1.616 0.217,-3.37 0.532,-5.262c1.419,-8.987 5.42,-16.22 12.002,-21.699c6.583,-5.479 14.407,-8.218 23.473,-8.218c4.493,0 9.164,0.67 14.012,2.01c4.849,1.34 9.086,3.114 12.712,5.321Z" style="fill-rule:nonzero;"/><path d="M388.522,239.196l14.072,-89.16l35.475,0c10.09,0 17.638,2.424 22.644,7.272c5.006,4.848 6.721,12.199 5.144,22.054c-3.153,20.181 -15.254,30.271 -36.302,30.271l-13.126,0l-4.73,29.563l-23.177,0Zm34.292,-70.477l-3.429,22.231l3.902,0c1.813,0 3.213,-0.02 4.198,-0.059c0.986,-0.04 2.267,-0.158 3.843,-0.355c1.577,-0.197 2.819,-0.512 3.725,-0.946c0.907,-0.433 1.872,-1.044 2.897,-1.833c1.025,-0.788 1.833,-1.833 2.424,-3.133c0.592,-1.301 1.006,-2.819 1.242,-4.553c0.394,-2.207 0.374,-4.04 -0.059,-5.499c-0.434,-1.458 -1.005,-2.581 -1.715,-3.37c-0.709,-0.788 -1.892,-1.36 -3.547,-1.714c-1.656,-0.355 -3.075,-0.572 -4.257,-0.651c-1.183,-0.078 -2.956,-0.118 -5.321,-0.118l-3.903,0Z" style="fill-rule:nonzero;"/><path d="M518.597,202.657l22.23,36.539l-28.852,0l-16.437,-34.293l-0.237,0l-5.439,34.293l-23.177,0l14.072,-89.16l34.647,0c9.302,0 16.437,2.286 21.403,6.858c4.966,4.572 6.74,11.431 5.321,20.576c-1.025,6.385 -3.626,11.903 -7.804,16.555c-4.178,4.651 -9.421,7.528 -15.727,8.632Zm-17.383,-34.884l-3.548,22.231l2.247,0c2.129,0 4.06,-0.138 5.794,-0.414c1.735,-0.276 3.508,-0.768 5.322,-1.478c1.813,-0.709 3.291,-1.853 4.434,-3.429c1.143,-1.577 1.892,-3.508 2.247,-5.794c0.354,-2.287 0.197,-4.218 -0.473,-5.795c-0.67,-1.576 -1.774,-2.719 -3.311,-3.429c-1.538,-0.709 -3.134,-1.202 -4.789,-1.478c-1.656,-0.276 -3.548,-0.414 -5.676,-0.414l-2.247,0Z" style="fill-rule:nonzero;"/><path d="M584.343,150.036l-14.071,89.16l-23.177,0l14.071,-89.16l23.177,0Z" style="fill-rule:nonzero;"/><path d="M585.408,239.196l14.071,-89.16l23.177,0l33.82,54.513l0.236,0l8.632,-54.513l23.177,0l-14.071,89.16l-23.177,0l-33.82,-54.631l-0.236,0l-8.632,54.631l-23.177,0Z" style="fill-rule:nonzero;"/><path d="M736.058,169.665l-10.998,69.531l-23.177,0l10.998,-69.531l-19.157,0l3.075,-19.629l61.49,0l-3.075,19.629l-19.156,0Z" style="fill-rule:nonzero;"/></g></g></svg>